<?xml version="1.0" encoding="UTF-8"?>
<svg version="1.1" viewBox="0 0 2048 947" width="1280" height="1280" xmlns="http://www.w3.org/2000/svg">
<path transform="translate(0)" d="m0 0h2048v947h-2048z" fill="#4E4E4D"/>
<path transform="translate(315,92)" d="m0 0 4 2 26 24 14 15 9 11 12 15 14 22 12 23 8 21 5 16 3 14 2 19v28l-4 27-7 30-9 26-12 27-11 22-13 23-12 20h-2l-1 4-2 4h-2v3h-2l-1 4-4 7h-2v3h-2v3h-2l-1 4-1 2h-2l-1 4-16 24h-2l-2 5-13 18-4 7h-2l-2 5-15 22h-2l-1 4-4 6h-2l-1 4-4 6h-2l-1 4-1 2h-2l-1 4-10 15-3 5h-2v3h-2v3h-2v3h-2l-1 4-21 35-9 16-12 23-12 26-10 27-8 27-1 4-4-2-11-11-7-8-12-14-13-17-12-17-12-21-8-16-7-16-9-27-4-21-2-12v-46l2-16 6-28 8-26 11-27 12-25 13-24 14-23 26-39 26-36 14-19 7-10h2l2-5 4-6h2l1-4h2l1-4h2l2-5 1-2h2l2-4 13-19 6-9h2v-3h2l2-5 3-5h2l1-4 1-2h2l1-4 12-19 9-15 13-24 10-22 10-30 5-25z" fill="#E1CF86"/>
<path transform="translate(477,453)" d="m0 0 1 2-1 6 1 1 5 33 6 18 4 23 2 6 4 22 4 20 6 28 5 23 5 21 2 8 4 11 6 23 4 14v4l4 1 4-6 1 3-10 20-12 19-13 16-9 10-17 17-14 11-14 10-12 7h-3v2l-16 8-13 5-8 3-10 4-28 7-31 4-11 1h-12l-33-3-14-3-4-5-2-9 1-15 5-18 10-24 14-27 16-27 7-11 8-13 7-11 2-4h2l1-4 5-7 1-3h2v-3h2l1-4 17-26 27-41 17-26 28-44 14-23 13-21 9-16z" fill="#BB9959"/>
<path transform="translate(156,381)" d="m0 0 5 5 4 9 7 25 8 27 3 13 4 19 4 17 2 5 5 26 3 12 3 9 5 14 2 7 3 7 4 11 2 21 5 17 5 8v2l4 2 2 6-5 15-3 5-1 4-16 27-9 16-12 23-12 26-10 27-8 27-1 4-4-2-11-11-7-8-12-14-13-17-12-17-12-21-8-16-7-16-9-27-4-21-2-12v-46l2-16 6-28 8-26 11-27 12-25 13-24 14-23 23-35h3z" fill="#BA9858"/>
<path transform="translate(1640,343)" d="m0 0h151l1 21-6 2-28 6-6 3-3 6-1 6-1 98 8-7 35-35 7-8 13-13 7-8 10-11 11-14 7-11v-7l-11-3-13-3-1-1v-21h116v21l-7 2-23 5-10 4-11 8-10 9-29 29-7 8-26 26-7 8-5 5 2 4 12 14 8 10 11 13 9 11 9 10 9 11 12 14 11 14 9 11 9 10 5 5 8 7 14 7 30 9 4 3v10l-2 2h-66l-22-3-14-4-10-6-10-9-10-11-12-16-13-17-10-13-14-18-12-16-14-18-6-8v99l2 13 4 4 9 3 25 5 4 2v12l-1 1h-151v-14l12-3 21-5 8-4 2-5 1-10v-201l-2-12-5-5-17-5-19-4-1-1z" fill="#BA9858"/>
<path transform="translate(1010,343)" d="m0 0h163l12 2 21 7 15 9 8 7 10 13 7 14 3 11 1 7v20l-3 15-3 10-5 10h-2l-1 4-7 9-10 10-4 3h-3v2l-6 3-9 4-14 5-17 3h-28l-22-3 1 85 2 13 2 4 18 4 25 4 3 1v14h-158v-14l12-3 21-5 7-3 3-9 1-24 1-55v-79l-1-46-1-13-3-6-8-4-21-5-11-2v-19z" fill="#BB9959"/>
<path transform="translate(1422,343)" d="m0 0h16l5 12 15 35 13 30 39 87 17 37 13 28 8 17 8 14 5 5v2l11 3 18 6v14h-141v-14l15-4 13-4 3-3v-10l-5-13-4-8-4-11-4-8-4-10-98-1-3 9-13 31-5 14v7l4 4 15 4 11 3v14h-99v-13l2-2 20-6 8-6 5-9 5-8 10-22 4-8 8-17 6-13 14-31 6-13 11-25 5-10 5-13 6-13 6-14 5-11 5-12 5-11 8-19z" fill="#E1CF86"/>
<path transform="translate(315,92)" d="m0 0 4 2 26 24 14 15 9 11 12 15 14 22 12 23 8 21 5 16 3 14 2 19v28l-4 27-7 30-9 26-12 27-11 22-13 23-8 14h-3l-5 4-3-4-2-13-3-8-3-16-2-5-5-22-4-18-10-40-5-21-3-15-6-26-3-17-9-36-4-15-2-19-1-3v-7l3-11 4-9 1-6 8-20 6-19 5-25z" fill="#BA9858"/>
<path transform="translate(843,344)" d="m0 0h34l26 4 24 6 7 3v14l-2 13-4 8-4 4-5 1-12-6-13-11-10-7-10-4-11-2h-13l-15 4-10 7-6 8-3 6-1 5v14l3 10 6 9 8 8 15 9 21 11 23 11 14 8 11 8 10 9 7 8 7 12 5 16 2 15v9l-2 14-6 18-9 15-12 13-8 7-17 9-20 6-22 3-13 1h-12l-32-3-20-4-15-4-4-2 1-25 1-9 1-48h20l4 16 8 24 6 11 7 8 10 6 11 4 6 1h17l13-4 11-7 8-11 4-10 1-6v-11l-3-13-6-10-5-6-14-10-27-14-24-12-16-10-10-8-11-11-8-14-3-9-2-8v-26l5-17 8-15 12-14 10-8 15-8 15-5z" fill="#BA9858"/>
<path transform="translate(392,591)" d="m0 0 2 1-3 5-1 6v18l3 16 4 16 7 30 2 7 1 13 8 30 6 27 2 5 4 20 4 12 1 7v18h8l5-1v2l-5 1v2l-16 8-13 5-8 3-10 4-28 7-31 4-11 1h-12l-33-3-14-3-4-5-2-9 1-15 5-18 10-24 14-27 16-27 7-11 8-13 7-11 2-4h2l1-4 5-7 1-3h2v-3h2l1-4 17-26 27-41z" fill="#E1CF86"/>
<path transform="translate(508,391)" d="m0 0h2l15 30 12 28 14 40 9 36 5 28 3 32v28l-3 31-6 29-8 25-5 11-4 5-4 4-3-2-7-25-6-22-3-7-3-15-5-21-5-22-17-85-2-8-5-16-5-33-1-4 1-7h2l1-5 18-35z" fill="#97642D"/>
<path transform="translate(1086,344)" d="m0 0h95l17 5 12 5 9 6 10 8 10 13 7 14 3 11 1 7v20l-3 15-3 10-5 10h-2l-1 4-7 9-10 10-4 3h-3v2l-6 3-9 4-14 5-17 3h-28l-17-2-5-2 3-5 2-12-3-4 28-1 12-3 10-6 7-7 7-14 3-17v-18l-3-16-3-7-6-9-9-7-14-5-3-1h-23l-9 1 3-3 6-3-4-4-5-3 2-6 2-3v-5l1-2-8-1-26-1z" fill="#E1CF86"/>
<path transform="translate(1419,351)" d="m0 0 1 3-7 20-7 19-7 16-7 20-2 7v20h4l6-10 7-10 1 2-11 26-15 35-11 26h74v1l-49 1-9 2-3 3 9 9 14 3 18 1v1l-43 1h-21l-3 9-13 31-5 14v7l4 4 15 4 11 3v14h-99v-13l2-2 20-6 8-6 5-9 5-8 10-22 4-8 8-17 6-13 14-31 6-13 11-25 5-10 5-13 6-13 6-14 5-11 5-12 5-11 8-19 2-5z" fill="#F8E69A"/>
<path transform="translate(1124,374)" d="m0 0h23l15 5 10 7 7 9 3 5 3 12 1 8v18l-3 17-7 14-9 9-12 6-9 2h-22l-7-1-1-1v-108z" fill="#4E4E4D"/>
<path transform="translate(485,436)" d="m0 0 2 1v8l3 7 3 19 1 9 4 16 2 5 2 11 4 18 3 18 10 44 4 20 6 24 6 22 3 12 4 13v6l2 1 3 8 2 1-2 9-5 6-4 4-3-2-7-25-6-22-3-7-3-15-5-21-5-22-17-85-2-8-5-16-5-33-1-4 1-7h2l1-5z" fill="#9E6E36"/>
<path transform="translate(1411,431)" d="m0 0 3 4 11 27 8 20 6 13 4 11 4 8 3 10h-79l2-6 30-70 5-11 2-5z" fill="#504F4D"/>
<path transform="translate(1355,521)" d="m0 0h4l1 5h3l1 6-3 5v7l-6 9-5 13-8 20-4 12-1 7 3 7 6 4 14 5 1 4-9 3-12 2-1 2-50 1h-18v-13l2-2 20-6 8-6 5-9 3-5 4-1 2-6 12-22 8-16 13-18 3-3z" fill="#E1CF86"/>
<path transform="translate(1175,718)" d="m0 0h12l7 3v2l4 2 3 5 1 3v18l-2 5h-2l-1 4-4 1v2l-9 3h-11l-8-3-5-4-3-7-1-12 2-10 7-8z" fill="#BF9F5E"/>
<path transform="translate(1867,718)" d="m0 0h10l8 3 6 6 2 7v16l-3 7-5 5-6 3-4 1h-11l-8-3-6-7-3-9v-8l3-10 6-7z" fill="#BB9959"/>
<path transform="translate(755,719)" d="m0 0h23l9 2 5 4 1 7-4 6-3 1v2l5 2 4 5-1 8-4 5-8 4h-27z" fill="#BA9858"/>
<path transform="translate(1424,719)" d="m0 0h25l10 4 2 3v12l-4 3-6 2 7 7 5 9 2 6h-12l-8-14v-3l-10-2v19h-11z" fill="#E1CE85"/>
<path transform="translate(1282,719)" d="m0 0h26l8 3 6 7v9l-5 8-11 4h-13v14l-1 1h-10z" fill="#DECA82"/>
<path transform="translate(1922,719)" d="m0 0h13l10 18 7 12 1-30h10v46h-13l-5-8-13-23-1 30-1 1h-8z" fill="#BB9959"/>
<path transform="translate(838,719)" d="m0 0h14l4 9 12 33v4h-11l-3-9h-19l-5 9h-9l1-6 15-39z" fill="#BB9959"/>
<path transform="translate(967,719)" d="m0 0h10l1 3v15h18l1-18h11v46h-11l-1-19h-18l-1 19h-10z" fill="#BB9959"/>
<path transform="translate(1355,719)" d="m0 0h35v7h-24v12h23v7h-22v13h23v7h-35l-1-1v-44z" fill="#DFCC84"/>
<path transform="translate(1568,719)" d="m0 0h36v7h-24v12h23v7h-23v13h24v7h-36z" fill="#E0CE85"/>
<path transform="translate(1653,719)" d="m0 0h22l2 1v8l-9-1h-11l-7 6-2 5v8l5 8v2l4 1h10l10-1v7l-10 3h-11l-12-4-5-5-4-11v-7l4-10 5-6z" fill="#DECB82"/>
<path transform="translate(1497,719)" d="m0 0h34v7h-22v13h22v7h-22v19h-12z" fill="#F6E599"/>
<path transform="translate(1781,719)" d="m0 0h37v7l-13 1-1 31h13l1 1v6h-38v-6l1-1h13v-32h-13z" fill="#BB9959"/>
<path transform="translate(1114,583)" d="m0 0h1l2 19 4 6v2l18 4 25 4 3 1v14h-31l-22-2 9-6 1-4-2-4-2-5-4-6-2-8z" fill="#DFCC84"/>
<path transform="translate(1937,612)" d="m0 0 12 3 12 4 2 2v10l-2 2h-66v-1h32l-1-4-3-1v-10l6-4z" fill="#9E6E36"/>
<path transform="translate(1087,719)" d="m0 0h43v7l-16 1-1 38h-10v-39h-16z" fill="#BB9959"/>
<path transform="translate(894,719)" d="m0 0h43v7h-16v39h-10l-1-38-16-1z" fill="#BB9959"/>
<path transform="translate(1706,719)" d="m0 0h43v7h-16l-1 38h-9v-38h-17z" fill="#E0CD85"/>
<path transform="translate(1867,726)" d="m0 0h8l5 3 3 8v10l-4 8-5 3h-7l-5-3-3-7v-12l4-8z" fill="#514F4C"/>
<path transform="translate(1176,726)" d="m0 0h7l6 2 3 10v8l-4 9-5 3h-7l-5-3-3-7v-14l5-7z" fill="#514F4C"/>
<path transform="translate(1184,719)" d="m0 0h6l4 2v2l4 2 3 5 1 3v18l-2 5h-2l-1 4-4 1v2l-9 3-7-1 1-5-3-1v-1l10-2 4-4 2-6v-8l-3-11h3l-2-5-5-2z" fill="#DDC981"/>
<path transform="translate(266,817)" d="m0 0h2l2 6 2 9 4 5 5 10-1 3-10 3-6-1-4-5-2-9v-7l2-3 4-9z" fill="#BC9A5A"/>
<path transform="translate(1293,726)" d="m0 0h10l6 3 1 1v8l-4 4h-13z" fill="#514F4D"/>
<path transform="translate(1930,345)" d="m0 0 4 1 2-1v13l-5 4-8 1-4-2 2-3-2-8h4l1-3z" fill="#9E6E36"/>
<path transform="translate(765,745)" d="m0 0h14l4 3v6l-5 4h-13z" fill="#514F4C"/>
<path transform="translate(845,728)" d="m0 0 2 3 5 14v4h-15l1-6 6-14z" fill="#595149"/>
<path transform="translate(1435,726)" d="m0 0h10l5 2 1 6-3 4-3 1h-10z" fill="#57524C"/>
<path transform="translate(765,726)" d="m0 0h13l3 3v6l-3 3h-13z" fill="#544F4B"/>
<path transform="translate(1442,720)" d="m0 0h10l8 4 1 2v12l-4 3-8 1-12-1v-1l7-1 5-3 1-6-1-3h2l2 4v6l5-1-1-8-6-5-9-2z" fill="#F6E598"/>
<path transform="translate(340,672)" d="m0 0 1 3-6 12-2 5h-2v2h-2l-2 4-9 11-2 3-2-1 7-11 6-9 1-3h2l1-4 5-7 1-3z" fill="#F5E397"/>
<path transform="translate(242,256)" d="m0 0 1 2-9 17-2 5-9 7-6 5 2-5 13-18 7-11z" fill="#F7E69A"/>
<path transform="translate(313,537)" d="m0 0 1 2-8 12-11 16-1 2h-2l-2 5-2-1 13-21 8-10z" fill="#F5E497"/>
<path transform="translate(1172,719)" d="m0 0h7v1l-6 2-8 4-4 5-2 7-1 9-2-1 1-13 4-7 6-5z" fill="#D5BD77"/>
<path transform="translate(1413,432)" d="m0 0 4 5 10 25 1 5-3-2-12-30z" fill="#F4E296"/>
<path transform="translate(1422,343)" d="m0 0h16l4 9v5l-2-3-5-8h-10l-5 2z" fill="#EDDA8F"/>
<path transform="translate(1450,744)" d="m0 0 4 2 5 6 6 11-1 2-3-2-7-14z" fill="#F2E094"/>
<path transform="translate(1444,747)" d="m0 0h2l8 14 1 3h-3l-8-16z" fill="#F0DE93"/>
<path transform="translate(1568,719)" d="m0 0 5 1-2 2-1 25h-1z" fill="#F3E296"/>
<path transform="translate(387,845)" d="m0 0 3 1-13 4-9 1 1-2z" fill="#F5E498"/>
<path transform="translate(1318,577)" d="m0 0 1 2-6 12h-2l3-9 2-4z" fill="#F6E599"/>
<path transform="translate(1307,598)" d="m0 0 1 2-6 8-4 2 6-9z" fill="#F4E397"/>
</svg>
